<?xml version="1.0" encoding="UTF-8"?>
<svg id="Layer_1" xmlns="http://www.w3.org/2000/svg" viewBox="0 0 1920 1080">
  <g>
    <g>
      <line x1="168.47" y1="947.06" x2="1439.38" y2="947.06" style="fill: none; stroke: #000; stroke-miterlimit: 10;"/>
      <g>
        <line x1="168.47" y1="947.06" x2="168.47" y2="103.99" style="fill: none; stroke: #000; stroke-miterlimit: 10;"/>
        <line x1="247.9" y1="947.06" x2="247.9" y2="103.99" style="fill: none; stroke: #d6d6d6; stroke-miterlimit: 10;"/>
        <line x1="327.33" y1="947.06" x2="327.33" y2="103.99" style="fill: none; stroke: #d6d6d6; stroke-miterlimit: 10;"/>
        <line x1="406.76" y1="947.06" x2="406.76" y2="103.99" style="fill: none; stroke: #d6d6d6; stroke-miterlimit: 10;"/>
        <line x1="486.19" y1="947.06" x2="486.19" y2="103.99" style="fill: none; stroke: #d6d6d6; stroke-miterlimit: 10;"/>
        <line x1="565.63" y1="947.06" x2="565.63" y2="103.99" style="fill: none; stroke: #d6d6d6; stroke-miterlimit: 10;"/>
        <line x1="645.06" y1="947.06" x2="645.06" y2="103.99" style="fill: none; stroke: #d6d6d6; stroke-miterlimit: 10;"/>
        <line x1="724.49" y1="947.06" x2="724.49" y2="103.99" style="fill: none; stroke: #d6d6d6; stroke-miterlimit: 10;"/>
        <line x1="803.92" y1="947.06" x2="803.92" y2="103.99" style="fill: none; stroke: #d6d6d6; stroke-miterlimit: 10;"/>
        <line x1="883.36" y1="947.06" x2="883.36" y2="103.99" style="fill: none; stroke: #d6d6d6; stroke-miterlimit: 10;"/>
        <line x1="962.79" y1="947.06" x2="962.79" y2="103.99" style="fill: none; stroke: #d6d6d6; stroke-miterlimit: 10;"/>
        <line x1="1042.22" y1="947.06" x2="1042.22" y2="103.99" style="fill: none; stroke: #d6d6d6; stroke-miterlimit: 10;"/>
        <line x1="1121.65" y1="947.06" x2="1121.65" y2="103.99" style="fill: none; stroke: #d6d6d6; stroke-miterlimit: 10;"/>
        <line x1="1201.08" y1="947.06" x2="1201.08" y2="103.99" style="fill: none; stroke: #d6d6d6; stroke-miterlimit: 10;"/>
        <line x1="1280.52" y1="947.06" x2="1280.52" y2="103.99" style="fill: none; stroke: #d6d6d6; stroke-miterlimit: 10;"/>
        <line x1="1359.95" y1="947.06" x2="1359.95" y2="103.99" style="fill: none; stroke: #d6d6d6; stroke-miterlimit: 10;"/>
        <line x1="1439.38" y1="947.06" x2="1439.38" y2="103.99" style="fill: none; stroke: #d6d6d6; stroke-miterlimit: 10;"/>
      </g>
    </g>
    <g>
      <g>
        <path d="M147.96,944.42c0,3.98-1.48,6.18-4.07,6.18-2.29,0-3.84-2.14-3.87-6.01,0-3.93,1.69-6.09,4.07-6.09s3.87,2.2,3.87,5.92ZM141.61,944.6c0,3.04.94,4.77,2.38,4.77,1.62,0,2.39-1.89,2.39-4.88s-.74-4.77-2.38-4.77c-1.39,0-2.4,1.69-2.4,4.88Z"/>
        <g>
          <path d="M119.47,771.41h-4.47l-.45,3.01c.27-.04.52-.07.95-.07.9,0,1.8.2,2.52.63.92.52,1.67,1.53,1.67,3.01,0,2.29-1.82,4-4.36,4-1.28,0-2.36-.36-2.92-.72l.4-1.21c.49.29,1.44.65,2.5.65,1.49,0,2.77-.97,2.77-2.54-.02-1.51-1.03-2.59-3.37-2.59-.67,0-1.19.07-1.62.13l.76-5.62h5.6v1.33Z"/>
          <path d="M129.5,775.81c0,3.98-1.48,6.18-4.07,6.18-2.29,0-3.84-2.14-3.87-6.01,0-3.93,1.69-6.09,4.07-6.09s3.87,2.2,3.87,5.92ZM123.14,775.99c0,3.04.94,4.77,2.38,4.77,1.62,0,2.39-1.89,2.39-4.88s-.74-4.77-2.38-4.77c-1.39,0-2.39,1.69-2.39,4.88Z"/>
          <path d="M138.73,775.81c0,3.98-1.48,6.18-4.07,6.18-2.29,0-3.84-2.14-3.87-6.01,0-3.93,1.69-6.09,4.07-6.09s3.87,2.2,3.87,5.92ZM132.37,775.99c0,3.04.94,4.77,2.38,4.77,1.62,0,2.39-1.89,2.39-4.88s-.74-4.77-2.38-4.77c-1.39,0-2.39,1.69-2.39,4.88Z"/>
          <path d="M147.96,775.81c0,3.98-1.48,6.18-4.07,6.18-2.29,0-3.84-2.14-3.87-6.01,0-3.93,1.69-6.09,4.07-6.09s3.87,2.2,3.87,5.92ZM141.61,775.99c0,3.04.94,4.77,2.38,4.77,1.62,0,2.39-1.89,2.39-4.88s-.74-4.77-2.38-4.77c-1.39,0-2.4,1.69-2.4,4.88Z"/>
        </g>
        <g>
          <path d="M106.69,602.95h-.04l-2.03,1.1-.31-1.21,2.56-1.37h1.35v11.7h-1.53v-10.23Z"/>
          <path d="M120.26,607.19c0,3.98-1.48,6.18-4.07,6.18-2.29,0-3.84-2.14-3.87-6.01,0-3.93,1.69-6.09,4.07-6.09s3.87,2.2,3.87,5.92ZM113.91,607.37c0,3.04.94,4.77,2.38,4.77,1.62,0,2.39-1.89,2.39-4.88s-.74-4.77-2.38-4.77c-1.39,0-2.39,1.69-2.39,4.88Z"/>
          <path d="M129.5,607.19c0,3.98-1.48,6.18-4.07,6.18-2.29,0-3.84-2.14-3.87-6.01,0-3.93,1.69-6.09,4.07-6.09s3.87,2.2,3.87,5.92ZM123.14,607.37c0,3.04.94,4.77,2.38,4.77,1.62,0,2.39-1.89,2.39-4.88s-.74-4.77-2.38-4.77c-1.39,0-2.39,1.69-2.39,4.88Z"/>
          <path d="M138.73,607.19c0,3.98-1.48,6.18-4.07,6.18-2.29,0-3.84-2.14-3.87-6.01,0-3.93,1.69-6.09,4.07-6.09s3.87,2.2,3.87,5.92ZM132.37,607.37c0,3.04.94,4.77,2.38,4.77,1.62,0,2.39-1.89,2.39-4.88s-.74-4.77-2.38-4.77c-1.39,0-2.4,1.69-2.4,4.88Z"/>
          <path d="M147.96,607.19c0,3.98-1.48,6.18-4.07,6.18-2.29,0-3.84-2.14-3.87-6.01,0-3.93,1.69-6.09,4.07-6.09s3.87,2.2,3.87,5.92ZM141.61,607.37c0,3.04.94,4.77,2.38,4.77,1.62,0,2.39-1.89,2.39-4.88s-.74-4.77-2.38-4.77c-1.39,0-2.39,1.69-2.39,4.88Z"/>
        </g>
        <g>
          <path d="M106.69,434.33h-.04l-2.03,1.1-.31-1.21,2.56-1.37h1.35v11.7h-1.53v-10.23Z"/>
          <path d="M119.47,434.19h-4.47l-.45,3.01c.27-.04.52-.07.95-.07.9,0,1.8.2,2.52.63.92.52,1.67,1.53,1.67,3.01,0,2.29-1.82,4-4.36,4-1.28,0-2.36-.36-2.92-.72l.4-1.21c.49.29,1.44.65,2.5.65,1.49,0,2.77-.97,2.77-2.54-.02-1.51-1.03-2.59-3.37-2.59-.67,0-1.19.07-1.62.13l.76-5.62h5.6v1.33Z"/>
          <path d="M129.5,438.58c0,3.98-1.48,6.18-4.07,6.18-2.29,0-3.84-2.14-3.87-6.01,0-3.92,1.69-6.09,4.07-6.09s3.87,2.2,3.87,5.92ZM123.14,438.76c0,3.04.94,4.77,2.38,4.77,1.62,0,2.39-1.89,2.39-4.88s-.74-4.77-2.38-4.77c-1.39,0-2.39,1.69-2.39,4.88Z"/>
          <path d="M138.73,438.58c0,3.98-1.48,6.18-4.07,6.18-2.29,0-3.84-2.14-3.87-6.01,0-3.92,1.69-6.09,4.07-6.09s3.87,2.2,3.87,5.92ZM132.37,438.76c0,3.04.94,4.77,2.38,4.77,1.62,0,2.39-1.89,2.39-4.88s-.74-4.77-2.38-4.77c-1.39,0-2.4,1.69-2.4,4.88Z"/>
          <path d="M147.96,438.58c0,3.98-1.48,6.18-4.07,6.18-2.29,0-3.84-2.14-3.87-6.01,0-3.92,1.69-6.09,4.07-6.09s3.87,2.2,3.87,5.92ZM141.61,438.76c0,3.04.94,4.77,2.38,4.77,1.62,0,2.39-1.89,2.39-4.88s-.74-4.77-2.38-4.77c-1.39,0-2.39,1.69-2.39,4.88Z"/>
        </g>
        <g>
          <path d="M103.25,275.95v-.97l1.24-1.21c2.99-2.84,4.34-4.36,4.36-6.12,0-1.19-.58-2.29-2.32-2.29-1.06,0-1.94.54-2.48.99l-.5-1.12c.81-.68,1.96-1.19,3.31-1.19,2.52,0,3.58,1.73,3.58,3.4,0,2.16-1.57,3.91-4.03,6.28l-.94.86v.04h5.26v1.31h-7.47Z"/>
          <path d="M120.26,269.97c0,3.98-1.48,6.18-4.07,6.18-2.29,0-3.84-2.14-3.87-6.01,0-3.92,1.69-6.09,4.07-6.09s3.87,2.2,3.87,5.92ZM113.91,270.15c0,3.04.94,4.77,2.38,4.77,1.62,0,2.39-1.89,2.39-4.88s-.74-4.77-2.38-4.77c-1.39,0-2.39,1.69-2.39,4.88Z"/>
          <path d="M129.5,269.97c0,3.98-1.48,6.18-4.07,6.18-2.29,0-3.84-2.14-3.87-6.01,0-3.92,1.69-6.09,4.07-6.09s3.87,2.2,3.87,5.92ZM123.14,270.15c0,3.04.94,4.77,2.38,4.77,1.62,0,2.39-1.89,2.39-4.88s-.74-4.77-2.38-4.77c-1.39,0-2.39,1.69-2.39,4.88Z"/>
          <path d="M138.73,269.97c0,3.98-1.48,6.18-4.07,6.18-2.29,0-3.84-2.14-3.87-6.01,0-3.92,1.69-6.09,4.07-6.09s3.87,2.2,3.87,5.92ZM132.37,270.15c0,3.04.94,4.77,2.38,4.77,1.62,0,2.39-1.89,2.39-4.88s-.74-4.77-2.38-4.77c-1.39,0-2.4,1.69-2.4,4.88Z"/>
          <path d="M147.96,269.97c0,3.98-1.48,6.18-4.07,6.18-2.29,0-3.84-2.14-3.87-6.01,0-3.92,1.69-6.09,4.07-6.09s3.87,2.2,3.87,5.92ZM141.61,270.15c0,3.04.94,4.77,2.38,4.77,1.62,0,2.39-1.89,2.39-4.88s-.74-4.77-2.38-4.77c-1.39,0-2.39,1.69-2.39,4.88Z"/>
        </g>
        <g>
          <path d="M88.13,110.33v-1.3l1.66-1.61c3.98-3.79,5.78-5.81,5.81-8.16,0-1.58-.77-3.05-3.1-3.05-1.42,0-2.59.72-3.31,1.32l-.67-1.49c1.08-.91,2.62-1.58,4.42-1.58,3.36,0,4.78,2.3,4.78,4.54,0,2.88-2.09,5.21-5.38,8.38l-1.25,1.15v.05h7.01v1.75h-9.96Z"/>
          <path d="M109.75,96.51h-5.95l-.6,4.01c.36-.05.7-.1,1.27-.1,1.2,0,2.4.26,3.36.84,1.22.7,2.23,2.04,2.23,4.01,0,3.05-2.42,5.33-5.81,5.33-1.7,0-3.14-.48-3.89-.96l.53-1.61c.65.38,1.92.86,3.34.86,1.99,0,3.7-1.3,3.7-3.38-.02-2.02-1.37-3.46-4.49-3.46-.89,0-1.58.1-2.16.17l1.01-7.49h7.46v1.78Z"/>
          <path d="M123.12,102.37c0,5.3-1.97,8.23-5.42,8.23-3.05,0-5.11-2.86-5.16-8.02,0-5.23,2.26-8.11,5.42-8.11s5.16,2.93,5.16,7.9ZM114.65,102.61c0,4.06,1.25,6.36,3.17,6.36,2.16,0,3.19-2.52,3.19-6.5s-.98-6.36-3.17-6.36c-1.85,0-3.19,2.26-3.19,6.5Z"/>
          <path d="M135.43,102.37c0,5.3-1.97,8.23-5.42,8.23-3.05,0-5.11-2.86-5.16-8.02,0-5.23,2.26-8.11,5.42-8.11s5.16,2.93,5.16,7.9ZM126.96,102.61c0,4.06,1.25,6.36,3.17,6.36,2.16,0,3.19-2.52,3.19-6.5s-.98-6.36-3.17-6.36c-1.85,0-3.19,2.26-3.19,6.5Z"/>
          <path d="M147.75,102.37c0,5.3-1.97,8.23-5.42,8.23-3.05,0-5.11-2.86-5.16-8.02,0-5.23,2.26-8.11,5.42-8.11s5.16,2.93,5.16,7.9ZM139.27,102.61c0,4.06,1.25,6.36,3.17,6.36,2.16,0,3.19-2.52,3.19-6.5s-.98-6.36-3.17-6.36c-1.85,0-3.19,2.26-3.19,6.5Z"/>
        </g>
      </g>
      <line x1="168.47" y1="947.06" x2="168.47" y2="103.99" style="fill: none; stroke: #000; stroke-miterlimit: 10;"/>
      <g>
        <line x1="168.47" y1="947.06" x2="1439.38" y2="947.06" style="fill: none; stroke: #000; stroke-miterlimit: 10;"/>
        <line x1="168.47" y1="778.44" x2="1439.38" y2="778.44" style="fill: none; stroke: #d6d6d6; stroke-miterlimit: 10;"/>
        <line x1="168.47" y1="609.83" x2="1439.38" y2="609.83" style="fill: none; stroke: #d6d6d6; stroke-miterlimit: 10;"/>
        <line x1="168.47" y1="441.22" x2="1439.38" y2="441.22" style="fill: none; stroke: #d6d6d6; stroke-miterlimit: 10;"/>
        <line x1="168.47" y1="272.61" x2="1439.38" y2="272.61" style="fill: none; stroke: #d6d6d6; stroke-miterlimit: 10;"/>
        <line x1="168.47" y1="103.99" x2="1439.38" y2="103.99" style="fill: none; stroke: #d6d6d6; stroke-miterlimit: 10;"/>
      </g>
    </g>
    <g>
      <g>
        <rect x="1522.81" y="143.15" width="158.86" height="6" style="fill: #b33235;"/>
        <polygon points="167.43 441.84 251.67 472.79 336.33 543.65 421.46 580.35 506.77 617.49 591.94 616.61 676.6 626.75 761.54 629.59 846.76 627.66 931.4 602.13 1015.84 605.69 1100.24 596.42 1183.74 618.72 1268.87 694.35 1355.93 688.36 1441.44 607.9 1437.32 603.53 1353.38 682.52 1270.98 688.19 1186.66 613.29 1100.7 590.33 1015.64 599.68 930.63 596.09 845.81 621.68 761.58 623.59 677.06 620.77 592.27 610.61 507.99 611.48 423.84 574.84 339.51 538.49 254.72 467.52 169.5 436.21 167.43 441.84" style="fill: #b33235;"/>
      </g>
      <g>
        <rect x="1522.81" y="269.61" width="158.86" height="6" style="fill: #ec5040;"/>
        <polygon points="169.88 296.84 252.85 252.52 336.35 320.48 420.96 357.36 506.74 439.64 592.17 402.71 676.62 435.22 762.16 414.69 847.42 400.27 932.4 343.68 1016.56 311.76 1100.05 296.17 1185.14 337.12 1269.66 299.91 1354.99 354.59 1441.42 274.74 1437.35 270.34 1354.32 347.03 1270.19 293.12 1185.25 330.51 1100.89 289.91 1014.93 305.96 929.63 338.31 845.16 394.56 760.96 408.8 677.04 428.95 592.04 396.23 508.02 432.55 424.34 352.29 339.5 315.31 253.54 245.35 167.05 291.54 169.88 296.84" style="fill: #ec5040;"/>
      </g>
      <g>
        <rect x="1522.81" y="396.07" width="158.86" height="6" style="fill: #283250;"/>
        <polygon points="168.92 877.49 253.24 864.7 337.86 874.6 422.62 868.09 507.18 876.4 592.16 878.94 677.12 873.09 761.76 862.71 846 861.61 930.77 879.29 1015.78 875.73 1100.48 877.12 1184.66 874.94 1269.67 908.7 1355.34 890.09 1440.13 868.35 1438.64 862.54 1353.96 884.25 1270.18 902.45 1185.73 868.91 1100.46 871.11 1015.7 869.73 931.26 873.26 846.58 855.6 761.36 856.72 676.55 867.11 592.05 872.93 507.57 870.41 422.68 862.07 337.98 868.57 253.14 858.64 168.02 871.55 168.92 877.49" style="fill: #283250;"/>
      </g>
    </g>
    <g>
      <g>
        <rect x="1599.25" y="143.15" width="6" height="6" style="fill: #b33235;"/>
        <g>
          <rect x="165.47" y="436.03" width="6" height="6" style="fill: #b33235;"/>
          <rect x="250.19" y="467.15" width="6" height="6" style="fill: #b33235;"/>
          <rect x="334.92" y="538.07" width="6" height="6" style="fill: #b33235;"/>
          <rect x="419.65" y="574.59" width="6" height="6" style="fill: #b33235;"/>
          <rect x="504.38" y="611.49" width="6" height="6" style="fill: #b33235;"/>
          <rect x="589.1" y="610.61" width="6" height="6" style="fill: #b33235;"/>
          <rect x="673.83" y="620.76" width="6" height="6" style="fill: #b33235;"/>
          <rect x="758.56" y="623.59" width="6" height="6" style="fill: #b33235;"/>
          <rect x="843.29" y="621.67" width="6" height="6" style="fill: #b33235;"/>
          <rect x="928.01" y="596.11" width="6" height="6" style="fill: #b33235;"/>
          <rect x="1012.74" y="599.68" width="6" height="6" style="fill: #b33235;"/>
          <rect x="1097.47" y="590.38" width="6" height="6" style="fill: #b33235;"/>
          <rect x="1182.2" y="613" width="6" height="6" style="fill: #b33235;"/>
          <rect x="1266.93" y="688.27" width="6" height="6" style="fill: #b33235;"/>
          <rect x="1351.65" y="682.44" width="6" height="6" style="fill: #b33235;"/>
          <rect x="1436.38" y="602.72" width="6" height="6" style="fill: #b33235;"/>
        </g>
      </g>
      <g>
        <rect x="1599.25" y="269.61" width="6" height="6" style="fill: #ec5040;"/>
        <g>
          <rect x="165.47" y="291.19" width="6" height="6" style="fill: #ec5040;"/>
          <rect x="250.19" y="245.93" width="6" height="6" style="fill: #ec5040;"/>
          <rect x="334.92" y="314.9" width="6" height="6" style="fill: #ec5040;"/>
          <rect x="419.65" y="351.82" width="6" height="6" style="fill: #ec5040;"/>
          <rect x="504.38" y="433.09" width="6" height="6" style="fill: #ec5040;"/>
          <rect x="589.1" y="396.47" width="6" height="6" style="fill: #ec5040;"/>
          <rect x="673.83" y="429.08" width="6" height="6" style="fill: #ec5040;"/>
          <rect x="758.56" y="408.75" width="6" height="6" style="fill: #ec5040;"/>
          <rect x="843.29" y="394.41" width="6" height="6" style="fill: #ec5040;"/>
          <rect x="928.01" y="338" width="6" height="6" style="fill: #ec5040;"/>
          <rect x="1012.74" y="305.86" width="6" height="6" style="fill: #ec5040;"/>
          <rect x="1097.47" y="290.04" width="6" height="6" style="fill: #ec5040;"/>
          <rect x="1182.2" y="330.81" width="6" height="6" style="fill: #ec5040;"/>
          <rect x="1266.93" y="293.52" width="6" height="6" style="fill: #ec5040;"/>
          <rect x="1351.65" y="347.81" width="6" height="6" style="fill: #ec5040;"/>
          <rect x="1436.38" y="269.54" width="6" height="6" style="fill: #ec5040;"/>
        </g>
      </g>
      <g>
        <rect x="1599.25" y="396.07" width="6" height="6" style="fill: #283250;"/>
        <g>
          <rect x="165.47" y="871.52" width="6" height="6" style="fill: #283250;"/>
          <rect x="250.19" y="858.67" width="6" height="6" style="fill: #283250;"/>
          <rect x="334.92" y="868.59" width="6" height="6" style="fill: #283250;"/>
          <rect x="419.65" y="862.08" width="6" height="6" style="fill: #283250;"/>
          <rect x="504.38" y="870.41" width="6" height="6" style="fill: #283250;"/>
          <rect x="589.1" y="872.94" width="6" height="6" style="fill: #283250;"/>
          <rect x="673.83" y="867.1" width="6" height="6" style="fill: #283250;"/>
          <rect x="758.56" y="856.72" width="6" height="6" style="fill: #283250;"/>
          <rect x="843.29" y="855.6" width="6" height="6" style="fill: #283250;"/>
          <rect x="928.01" y="873.27" width="6" height="6" style="fill: #283250;"/>
          <rect x="1012.74" y="869.73" width="6" height="6" style="fill: #283250;"/>
          <rect x="1097.47" y="871.11" width="6" height="6" style="fill: #283250;"/>
          <rect x="1182.2" y="868.92" width="6" height="6" style="fill: #283250;"/>
          <rect x="1266.93" y="902.58" width="6" height="6" style="fill: #283250;"/>
          <rect x="1351.65" y="884.17" width="6" height="6" style="fill: #283250;"/>
          <rect x="1436.38" y="862.45" width="6" height="6" style="fill: #283250;"/>
        </g>
      </g>
    </g>
    <g>
      <g>
        <path d="M1703.27,129.23h3.13v11.7h.11c.65-.94,1.3-1.8,1.91-2.59l7.42-9.11h3.89l-8.78,10.29,9.47,13.97h-3.71l-7.99-11.91-2.3,2.66v9.25h-3.13v-24.26Z"/>
        <path d="M1726.56,131.17c.04,1.08-.76,1.94-2.02,1.94-1.12,0-1.91-.86-1.91-1.94s.83-1.98,1.98-1.98,1.94.86,1.94,1.98ZM1723.03,153.49v-17.42h3.17v17.42h-3.17Z"/>
        <path d="M1731.46,141.5c0-2.05-.04-3.82-.14-5.44h2.77l.11,3.42h.14c.79-2.34,2.7-3.82,4.82-3.82.36,0,.61.04.9.11v2.99c-.32-.07-.65-.11-1.08-.11-2.23,0-3.82,1.69-4.25,4.07-.07.43-.14.94-.14,1.48v9.29h-3.13v-11.99Z"/>
        <path d="M1746.51,144.06h.07c.43-.61,1.04-1.37,1.55-1.98l5.11-6.01h3.82l-6.73,7.16,7.67,10.26h-3.85l-6.01-8.35-1.62,1.8v6.55h-3.13v-25.56h3.13v16.13Z"/>
        <path d="M1762.02,145.35c.07,4.28,2.81,6.05,5.97,6.05,2.27,0,3.64-.4,4.82-.9l.54,2.27c-1.12.5-3.02,1.08-5.8,1.08-5.36,0-8.57-3.53-8.57-8.78s3.1-9.4,8.17-9.4c5.69,0,7.2,5,7.2,8.21,0,.65-.07,1.15-.11,1.48h-12.24ZM1771.31,143.08c.04-2.02-.83-5.15-4.39-5.15-3.2,0-4.61,2.95-4.86,5.15h9.25Z"/>
        <path d="M1778.29,127.93h3.17v25.56h-3.17v-25.56Z"/>
        <path d="M1790.32,131.17c.04,1.08-.76,1.94-2.02,1.94-1.12,0-1.91-.86-1.91-1.94s.83-1.98,1.98-1.98,1.94.86,1.94,1.98ZM1786.79,153.49v-17.42h3.17v17.42h-3.17Z"/>
        <path d="M1810.22,136.07c-.07,1.26-.14,2.66-.14,4.79v10.11c0,4-.79,6.44-2.48,7.96-1.69,1.58-4.14,2.09-6.33,2.09s-4.39-.5-5.79-1.44l.79-2.41c1.15.72,2.95,1.37,5.11,1.37,3.24,0,5.62-1.69,5.62-6.08v-1.94h-.07c-.97,1.62-2.84,2.92-5.54,2.92-4.32,0-7.42-3.67-7.42-8.5,0-5.9,3.85-9.25,7.85-9.25,3.02,0,4.68,1.58,5.44,3.02h.07l.14-2.63h2.77ZM1806.95,142.94c0-.54-.04-1.01-.18-1.44-.58-1.84-2.12-3.35-4.43-3.35-3.02,0-5.18,2.56-5.18,6.59,0,3.42,1.73,6.26,5.15,6.26,1.94,0,3.71-1.22,4.39-3.24.18-.54.25-1.15.25-1.69v-3.13Z"/>
      </g>
      <g>
        <path d="M1703.27,256.01c1.37-.29,3.53-.5,5.72-.5,3.13,0,5.15.54,6.66,1.76,1.26.94,2.02,2.38,2.02,4.28,0,2.34-1.55,4.39-4.1,5.33v.07c2.3.58,5,2.48,5,6.08,0,2.09-.83,3.67-2.05,4.86-1.69,1.55-4.43,2.27-8.39,2.27-2.16,0-3.82-.14-4.86-.29v-23.87ZM1706.4,265.94h2.84c3.31,0,5.25-1.73,5.25-4.07,0-2.84-2.16-3.96-5.33-3.96-1.44,0-2.27.11-2.77.22v7.81ZM1706.4,277.57c.61.11,1.51.14,2.63.14,3.24,0,6.23-1.19,6.23-4.72,0-3.31-2.84-4.68-6.26-4.68h-2.59v9.25Z"/>
        <path d="M1738.58,271.09c0,6.44-4.46,9.25-8.67,9.25-4.72,0-8.35-3.46-8.35-8.96,0-5.83,3.82-9.25,8.64-9.25s8.39,3.64,8.39,8.96ZM1724.76,271.27c0,3.82,2.2,6.69,5.29,6.69s5.29-2.84,5.29-6.77c0-2.95-1.48-6.69-5.22-6.69s-5.36,3.46-5.36,6.77Z"/>
        <path d="M1742.58,267.96c0-2.05-.04-3.82-.14-5.44h2.77l.11,3.42h.14c.79-2.34,2.7-3.82,4.82-3.82.36,0,.61.04.9.11v2.99c-.32-.07-.65-.11-1.08-.11-2.23,0-3.82,1.69-4.25,4.07-.07.43-.14.94-.14,1.48v9.29h-3.13v-11.99Z"/>
        <path d="M1769.08,262.52c-.07,1.26-.14,2.66-.14,4.79v10.11c0,4-.79,6.44-2.48,7.96-1.69,1.58-4.14,2.09-6.33,2.09s-4.39-.5-5.79-1.44l.79-2.41c1.15.72,2.95,1.37,5.11,1.37,3.24,0,5.62-1.69,5.62-6.08v-1.94h-.07c-.97,1.62-2.84,2.92-5.54,2.92-4.32,0-7.42-3.67-7.42-8.5,0-5.9,3.85-9.25,7.85-9.25,3.02,0,4.68,1.58,5.44,3.02h.07l.14-2.63h2.77ZM1765.8,269.4c0-.54-.04-1.01-.18-1.44-.58-1.84-2.12-3.35-4.43-3.35-3.02,0-5.18,2.56-5.18,6.59,0,3.42,1.73,6.26,5.15,6.26,1.94,0,3.71-1.22,4.39-3.24.18-.54.25-1.15.25-1.69v-3.13Z"/>
        <path d="M1775.95,271.81c.07,4.28,2.81,6.05,5.98,6.05,2.27,0,3.63-.4,4.82-.9l.54,2.27c-1.12.5-3.02,1.08-5.8,1.08-5.36,0-8.57-3.53-8.57-8.78s3.1-9.4,8.17-9.4c5.69,0,7.2,5,7.2,8.21,0,.65-.07,1.15-.11,1.48h-12.24ZM1785.24,269.54c.04-2.02-.83-5.15-4.39-5.15-3.2,0-4.61,2.95-4.86,5.15h9.25Z"/>
        <path d="M1792.23,267.96c0-2.05-.04-3.82-.14-5.44h2.77l.11,3.42h.14c.79-2.34,2.7-3.82,4.82-3.82.36,0,.61.04.9.11v2.99c-.32-.07-.65-.11-1.08-.11-2.23,0-3.82,1.69-4.25,4.07-.07.43-.14.94-.14,1.48v9.29h-3.13v-11.99Z"/>
        <path d="M1804.14,254.39h3.17v25.56h-3.17v-25.56Z"/>
        <path d="M1816.17,257.63c.04,1.08-.76,1.94-2.02,1.94-1.12,0-1.91-.86-1.91-1.94s.83-1.98,1.98-1.98,1.94.86,1.94,1.98ZM1812.64,279.95v-17.42h3.17v17.42h-3.17Z"/>
        <path d="M1836.07,262.52c-.07,1.26-.14,2.66-.14,4.79v10.11c0,4-.79,6.44-2.48,7.96-1.69,1.58-4.14,2.09-6.33,2.09s-4.39-.5-5.79-1.44l.79-2.41c1.15.72,2.95,1.37,5.11,1.37,3.24,0,5.62-1.69,5.62-6.08v-1.94h-.07c-.97,1.62-2.84,2.92-5.54,2.92-4.32,0-7.42-3.67-7.42-8.5,0-5.9,3.85-9.25,7.85-9.25,3.02,0,4.68,1.58,5.44,3.02h.07l.14-2.63h2.77ZM1832.8,269.4c0-.54-.04-1.01-.18-1.44-.58-1.84-2.12-3.35-4.43-3.35-3.02,0-5.18,2.56-5.18,6.59,0,3.42,1.73,6.26,5.15,6.26,1.94,0,3.71-1.22,4.39-3.24.18-.54.25-1.15.25-1.69v-3.13Z"/>
      </g>
      <g>
        <path d="M1708.19,398.78l-2.52,7.63h-3.24l8.24-24.26h3.78l8.28,24.26h-3.35l-2.59-7.63h-8.6ZM1716.15,396.33l-2.38-6.98c-.54-1.58-.9-3.02-1.26-4.43h-.07c-.36,1.44-.76,2.92-1.22,4.39l-2.38,7.02h7.31Z"/>
        <path d="M1726.09,393.7c0-1.8-.04-3.28-.14-4.72h2.81l.18,2.88h.07c.86-1.66,2.88-3.28,5.76-3.28,2.41,0,6.16,1.44,6.16,7.42v10.4h-3.17v-10.04c0-2.81-1.04-5.15-4.03-5.15-2.09,0-3.71,1.48-4.25,3.24-.14.4-.22.94-.22,1.48v10.47h-3.17v-12.71Z"/>
        <path d="M1761.11,380.85v21.06c0,1.55.04,3.31.14,4.5h-2.84l-.14-3.02h-.07c-.97,1.94-3.1,3.42-5.94,3.42-4.21,0-7.45-3.56-7.45-8.85-.04-5.8,3.56-9.36,7.81-9.36,2.66,0,4.46,1.26,5.26,2.66h.07v-10.4h3.17ZM1757.95,396.08c0-.4-.04-.94-.14-1.33-.47-2.02-2.2-3.67-4.57-3.67-3.28,0-5.22,2.88-5.22,6.73,0,3.53,1.73,6.44,5.15,6.44,2.12,0,4.07-1.4,4.64-3.78.11-.43.14-.86.14-1.37v-3.02Z"/>
        <path d="M1768.13,398.27c.07,4.28,2.81,6.05,5.97,6.05,2.27,0,3.64-.4,4.82-.9l.54,2.27c-1.12.5-3.02,1.08-5.8,1.08-5.36,0-8.57-3.53-8.57-8.78s3.1-9.4,8.17-9.4c5.69,0,7.2,5,7.2,8.21,0,.65-.07,1.15-.11,1.48h-12.24ZM1777.42,396c.04-2.02-.83-5.15-4.39-5.15-3.2,0-4.61,2.95-4.86,5.15h9.25Z"/>
        <path d="M1788.22,383.98v5h4.54v2.41h-4.54v9.4c0,2.16.61,3.38,2.38,3.38.83,0,1.44-.11,1.83-.22l.14,2.38c-.61.25-1.58.43-2.81.43-1.48,0-2.66-.47-3.42-1.33-.9-.94-1.22-2.48-1.22-4.54v-9.5h-2.7v-2.41h2.7v-4.18l3.1-.83Z"/>
      </g>
    </g>
  </g>
  <polyline points="1879.59 216.23 1829.59 216.23 1829.59 216.23" style="fill: none;"/>
  <rect x="1781.17" y="144.79" width="95.25" height="0" style="fill: none;"/>
  <g>
    <path d="M230.1,994.98v-.97l1.24-1.21c2.99-2.84,4.34-4.36,4.36-6.12,0-1.19-.58-2.29-2.32-2.29-1.06,0-1.94.54-2.48.99l-.5-1.12c.81-.68,1.96-1.19,3.31-1.19,2.52,0,3.58,1.73,3.58,3.4,0,2.16-1.57,3.91-4.03,6.28l-.94.86v.04h5.26v1.31h-7.47Z"/>
    <path d="M247.11,989.01c0,3.98-1.48,6.18-4.07,6.18-2.29,0-3.84-2.14-3.87-6.01,0-3.93,1.69-6.09,4.07-6.09s3.87,2.2,3.87,5.92ZM240.76,989.19c0,3.04.94,4.77,2.38,4.77,1.62,0,2.39-1.89,2.39-4.88s-.74-4.77-2.38-4.77c-1.39,0-2.39,1.69-2.39,4.88Z"/>
    <path d="M256.35,989.01c0,3.98-1.48,6.18-4.07,6.18-2.29,0-3.84-2.14-3.87-6.01,0-3.93,1.69-6.09,4.07-6.09s3.87,2.2,3.87,5.92ZM249.99,989.19c0,3.04.94,4.77,2.38,4.77,1.62,0,2.39-1.89,2.39-4.88s-.74-4.77-2.38-4.77c-1.39,0-2.39,1.69-2.39,4.88Z"/>
    <path d="M265.4,983.28v1.04l-5.1,10.66h-1.64l5.08-10.35v-.04h-5.73v-1.31h7.38Z"/>
  </g>
  <g>
    <path d="M309.1,994.98v-.97l1.24-1.21c2.99-2.84,4.34-4.36,4.36-6.12,0-1.19-.58-2.29-2.32-2.29-1.06,0-1.94.54-2.48.99l-.5-1.12c.81-.68,1.96-1.19,3.31-1.19,2.52,0,3.58,1.73,3.58,3.4,0,2.16-1.57,3.91-4.03,6.28l-.94.86v.04h5.26v1.31h-7.47Z"/>
    <path d="M326.11,989.01c0,3.98-1.48,6.18-4.07,6.18-2.29,0-3.84-2.14-3.87-6.01,0-3.93,1.69-6.09,4.07-6.09s3.87,2.2,3.87,5.92ZM319.76,989.19c0,3.04.94,4.77,2.38,4.77,1.62,0,2.39-1.89,2.39-4.88s-.74-4.77-2.38-4.77c-1.39,0-2.39,1.69-2.39,4.88Z"/>
    <path d="M335.35,989.01c0,3.98-1.48,6.18-4.07,6.18-2.29,0-3.84-2.14-3.87-6.01,0-3.93,1.69-6.09,4.07-6.09s3.87,2.2,3.87,5.92ZM328.99,989.19c0,3.04.94,4.77,2.38,4.77,1.62,0,2.39-1.89,2.39-4.88s-.74-4.77-2.38-4.77c-1.39,0-2.39,1.69-2.39,4.88Z"/>
    <path d="M336.66,992.01c0-1.48.88-2.52,2.32-3.13l-.02-.05c-1.3-.61-1.85-1.62-1.85-2.63,0-1.86,1.57-3.12,3.62-3.12,2.27,0,3.4,1.42,3.4,2.88,0,.99-.49,2.05-1.93,2.74v.05c1.46.58,2.36,1.6,2.36,3.02,0,2.04-1.75,3.4-3.98,3.4-2.45,0-3.93-1.46-3.93-3.17ZM342.96,991.94c0-1.42-.99-2.11-2.57-2.56-1.37.4-2.11,1.3-2.11,2.41-.05,1.19.85,2.23,2.34,2.23s2.34-.88,2.34-2.09ZM338.6,986.09c0,1.17.88,1.8,2.23,2.16,1.01-.34,1.78-1.06,1.78-2.12,0-.94-.56-1.91-1.98-1.91-1.31,0-2.03.86-2.03,1.87Z"/>
  </g>
  <g>
    <path d="M389.1,994.98v-.97l1.24-1.21c2.99-2.84,4.34-4.36,4.36-6.12,0-1.19-.58-2.29-2.32-2.29-1.06,0-1.94.54-2.48.99l-.5-1.12c.81-.68,1.96-1.19,3.31-1.19,2.52,0,3.58,1.73,3.58,3.4,0,2.16-1.57,3.91-4.03,6.28l-.94.86v.04h5.26v1.31h-7.47Z"/>
    <path d="M406.11,989.01c0,3.98-1.48,6.18-4.07,6.18-2.29,0-3.84-2.14-3.87-6.01,0-3.93,1.69-6.09,4.07-6.09s3.87,2.2,3.87,5.92ZM399.76,989.19c0,3.04.94,4.77,2.38,4.77,1.62,0,2.39-1.89,2.39-4.88s-.74-4.77-2.38-4.77c-1.39,0-2.39,1.69-2.39,4.88Z"/>
    <path d="M415.35,989.01c0,3.98-1.48,6.18-4.07,6.18-2.29,0-3.84-2.14-3.87-6.01,0-3.93,1.69-6.09,4.07-6.09s3.87,2.2,3.87,5.92ZM408.99,989.19c0,3.04.94,4.77,2.38,4.77,1.62,0,2.39-1.89,2.39-4.88s-.74-4.77-2.38-4.77c-1.39,0-2.39,1.69-2.39,4.88Z"/>
    <path d="M417.72,993.87c.34.04.74,0,1.28-.05.92-.13,1.78-.5,2.45-1.13.77-.7,1.33-1.73,1.55-3.12h-.05c-.65.79-1.58,1.26-2.75,1.26-2.11,0-3.46-1.58-3.46-3.58,0-2.21,1.6-4.16,4-4.16s3.87,1.94,3.87,4.93c0,2.57-.86,4.38-2.02,5.49-.9.88-2.14,1.42-3.4,1.57-.58.09-1.08.11-1.46.09v-1.3ZM418.3,987.13c0,1.46.88,2.49,2.25,2.49,1.06,0,1.89-.52,2.3-1.22.09-.14.14-.32.14-.58,0-2-.74-3.53-2.39-3.53-1.35,0-2.3,1.19-2.3,2.84Z"/>
  </g>
  <g>
    <path d="M467.1,994.98v-.97l1.24-1.21c2.99-2.84,4.34-4.36,4.36-6.12,0-1.19-.58-2.29-2.32-2.29-1.06,0-1.94.54-2.48.99l-.5-1.12c.81-.68,1.96-1.19,3.31-1.19,2.52,0,3.58,1.73,3.58,3.4,0,2.16-1.57,3.91-4.03,6.28l-.94.86v.04h5.26v1.31h-7.47Z"/>
    <path d="M484.11,989.01c0,3.98-1.48,6.18-4.07,6.18-2.29,0-3.84-2.14-3.87-6.01,0-3.93,1.69-6.09,4.07-6.09s3.87,2.2,3.87,5.92ZM477.76,989.19c0,3.04.94,4.77,2.38,4.77,1.62,0,2.39-1.89,2.39-4.88s-.74-4.77-2.38-4.77c-1.39,0-2.39,1.69-2.39,4.88Z"/>
    <path d="M489.01,984.76h-.04l-2.03,1.1-.31-1.21,2.56-1.37h1.35v11.7h-1.53v-10.23Z"/>
    <path d="M502.58,989.01c0,3.98-1.48,6.18-4.07,6.18-2.29,0-3.84-2.14-3.87-6.01,0-3.93,1.69-6.09,4.07-6.09s3.87,2.2,3.87,5.92ZM496.22,989.19c0,3.04.94,4.77,2.38,4.77,1.62,0,2.39-1.89,2.39-4.88s-.74-4.77-2.38-4.77c-1.39,0-2.4,1.69-2.4,4.88Z"/>
  </g>
  <g>
    <path d="M626.1,994.98v-.97l1.24-1.21c2.99-2.84,4.34-4.36,4.36-6.12,0-1.19-.58-2.29-2.32-2.29-1.06,0-1.94.54-2.48.99l-.5-1.12c.81-.68,1.96-1.19,3.31-1.19,2.52,0,3.58,1.73,3.58,3.4,0,2.16-1.57,3.91-4.03,6.28l-.94.86v.04h5.26v1.31h-7.47Z"/>
    <path d="M643.11,989.01c0,3.98-1.48,6.18-4.07,6.18-2.29,0-3.84-2.14-3.87-6.01,0-3.93,1.69-6.09,4.07-6.09s3.87,2.2,3.87,5.92ZM636.76,989.19c0,3.04.94,4.77,2.38,4.77,1.62,0,2.39-1.89,2.39-4.88s-.74-4.77-2.38-4.77c-1.39,0-2.39,1.69-2.39,4.88Z"/>
    <path d="M648.01,984.76h-.04l-2.03,1.1-.31-1.21,2.56-1.37h1.35v11.7h-1.53v-10.23Z"/>
    <path d="M653.8,994.98v-.97l1.24-1.21c2.99-2.84,4.34-4.36,4.36-6.12,0-1.19-.58-2.29-2.32-2.29-1.06,0-1.94.54-2.48.99l-.5-1.12c.81-.68,1.96-1.19,3.31-1.19,2.52,0,3.58,1.73,3.58,3.4,0,2.16-1.57,3.91-4.03,6.28l-.94.86v.04h5.26v1.31h-7.47Z"/>
  </g>
  <g>
    <path d="M706.1,994.98v-.97l1.24-1.21c2.99-2.84,4.34-4.36,4.36-6.12,0-1.19-.58-2.29-2.32-2.29-1.06,0-1.94.54-2.48.99l-.5-1.12c.81-.68,1.96-1.19,3.31-1.19,2.52,0,3.58,1.73,3.58,3.4,0,2.16-1.57,3.91-4.03,6.28l-.94.86v.04h5.26v1.31h-7.47Z"/>
    <path d="M723.11,989.01c0,3.98-1.48,6.18-4.07,6.18-2.29,0-3.84-2.14-3.87-6.01,0-3.93,1.69-6.09,4.07-6.09s3.87,2.2,3.87,5.92ZM716.76,989.19c0,3.04.94,4.77,2.38,4.77,1.62,0,2.39-1.89,2.39-4.88s-.74-4.77-2.38-4.77c-1.39,0-2.39,1.69-2.39,4.88Z"/>
    <path d="M728.01,984.76h-.04l-2.03,1.1-.31-1.21,2.56-1.37h1.35v11.7h-1.53v-10.23Z"/>
    <path d="M734.18,993.17c.45.29,1.49.74,2.59.74,2.03,0,2.66-1.3,2.65-2.27-.02-1.64-1.49-2.34-3.02-2.34h-.88v-1.19h.88c1.15,0,2.61-.59,2.61-1.98,0-.94-.59-1.76-2.05-1.76-.94,0-1.84.41-2.34.77l-.41-1.15c.61-.45,1.8-.9,3.06-.9,2.3,0,3.35,1.37,3.35,2.79,0,1.21-.72,2.23-2.16,2.75v.04c1.44.29,2.61,1.37,2.61,3.01,0,1.87-1.46,3.51-4.27,3.51-1.31,0-2.47-.41-3.04-.79l.43-1.22Z"/>
  </g>
  <g>
    <path d="M785.1,994.98v-.97l1.24-1.21c2.99-2.84,4.34-4.36,4.36-6.12,0-1.19-.58-2.29-2.32-2.29-1.06,0-1.94.54-2.48.99l-.5-1.12c.81-.68,1.96-1.19,3.31-1.19,2.52,0,3.58,1.73,3.58,3.4,0,2.16-1.57,3.91-4.03,6.28l-.94.86v.04h5.26v1.31h-7.47Z"/>
    <path d="M802.11,989.01c0,3.98-1.48,6.18-4.07,6.18-2.29,0-3.83-2.14-3.87-6.01,0-3.93,1.69-6.09,4.07-6.09s3.87,2.2,3.87,5.92ZM795.76,989.19c0,3.04.94,4.77,2.38,4.77,1.62,0,2.39-1.89,2.39-4.88s-.74-4.77-2.38-4.77c-1.39,0-2.39,1.69-2.39,4.88Z"/>
    <path d="M807.01,984.76h-.04l-2.04,1.1-.31-1.21,2.56-1.37h1.35v11.7h-1.53v-10.23Z"/>
    <path d="M817.7,994.98v-3.19h-5.44v-1.04l5.22-7.47h1.71v7.27h1.64v1.24h-1.64v3.19h-1.5ZM817.7,990.55v-3.91c0-.61.02-1.22.05-1.84h-.05c-.36.68-.65,1.19-.97,1.73l-2.86,3.98v.04h3.83Z"/>
  </g>
  <g>
    <path d="M865.1,994.98v-.97l1.24-1.21c2.99-2.84,4.34-4.36,4.36-6.12,0-1.19-.58-2.29-2.32-2.29-1.06,0-1.94.54-2.48.99l-.5-1.12c.81-.68,1.96-1.19,3.31-1.19,2.52,0,3.58,1.73,3.58,3.4,0,2.16-1.57,3.91-4.03,6.28l-.94.86v.04h5.26v1.31h-7.47Z"/>
    <path d="M882.11,989.01c0,3.98-1.48,6.18-4.07,6.18-2.29,0-3.83-2.14-3.87-6.01,0-3.93,1.69-6.09,4.07-6.09s3.87,2.2,3.87,5.92ZM875.76,989.19c0,3.04.94,4.77,2.38,4.77,1.62,0,2.39-1.89,2.39-4.88s-.74-4.77-2.38-4.77c-1.39,0-2.39,1.69-2.39,4.88Z"/>
    <path d="M887.01,984.76h-.04l-2.04,1.1-.31-1.21,2.56-1.37h1.35v11.7h-1.53v-10.23Z"/>
    <path d="M899.79,984.61h-4.46l-.45,3.01c.27-.04.52-.07.95-.07.9,0,1.8.2,2.52.63.92.52,1.67,1.53,1.67,3.01,0,2.29-1.82,4-4.36,4-1.28,0-2.36-.36-2.92-.72l.4-1.21c.49.29,1.44.65,2.5.65,1.49,0,2.77-.97,2.77-2.54-.02-1.51-1.03-2.59-3.37-2.59-.67,0-1.19.07-1.62.13l.76-5.62h5.6v1.33Z"/>
  </g>
  <g>
    <path d="M944.1,994.98v-.97l1.24-1.21c2.99-2.84,4.34-4.36,4.36-6.12,0-1.19-.58-2.29-2.32-2.29-1.06,0-1.94.54-2.48.99l-.5-1.12c.81-.68,1.96-1.19,3.31-1.19,2.52,0,3.58,1.73,3.58,3.4,0,2.16-1.57,3.91-4.03,6.28l-.94.86v.04h5.26v1.31h-7.47Z"/>
    <path d="M961.11,989.01c0,3.98-1.48,6.18-4.07,6.18-2.29,0-3.83-2.14-3.87-6.01,0-3.93,1.69-6.09,4.07-6.09s3.87,2.2,3.87,5.92ZM954.76,989.19c0,3.04.94,4.77,2.38,4.77,1.62,0,2.39-1.89,2.39-4.88s-.74-4.77-2.38-4.77c-1.39,0-2.39,1.69-2.39,4.88Z"/>
    <path d="M966.01,984.76h-.04l-2.04,1.1-.31-1.21,2.56-1.37h1.35v11.7h-1.53v-10.23Z"/>
    <path d="M978.48,984.4c-.32-.02-.74,0-1.19.07-2.48.41-3.8,2.23-4.07,4.16h.05c.56-.74,1.53-1.35,2.83-1.35,2.07,0,3.53,1.49,3.53,3.78,0,2.14-1.46,4.12-3.89,4.12s-4.14-1.94-4.14-4.99c0-2.3.83-4.12,1.98-5.28.97-.95,2.27-1.55,3.75-1.73.47-.07.86-.09,1.15-.09v1.3ZM978.03,991.15c0-1.67-.95-2.68-2.41-2.68-.95,0-1.84.59-2.27,1.44-.11.18-.18.41-.18.7.04,1.93.92,3.35,2.57,3.35,1.37,0,2.29-1.13,2.29-2.81Z"/>
  </g>
  <g>
    <path d="M1023.1,994.98v-.97l1.24-1.21c2.99-2.84,4.34-4.36,4.36-6.12,0-1.19-.58-2.29-2.32-2.29-1.06,0-1.94.54-2.48.99l-.5-1.12c.81-.68,1.96-1.19,3.31-1.19,2.52,0,3.58,1.73,3.58,3.4,0,2.16-1.57,3.91-4.03,6.28l-.94.86v.04h5.26v1.31h-7.47Z"/>
    <path d="M1040.11,989.01c0,3.98-1.48,6.18-4.07,6.18-2.29,0-3.83-2.14-3.87-6.01,0-3.93,1.69-6.09,4.07-6.09s3.87,2.2,3.87,5.92ZM1033.76,989.19c0,3.04.94,4.77,2.38,4.77,1.62,0,2.39-1.89,2.39-4.88s-.74-4.77-2.38-4.77c-1.39,0-2.39,1.69-2.39,4.88Z"/>
    <path d="M1045.01,984.76h-.04l-2.04,1.1-.31-1.21,2.56-1.37h1.35v11.7h-1.53v-10.23Z"/>
    <path d="M1058.4,983.28v1.04l-5.1,10.66h-1.64l5.08-10.35v-.04h-5.73v-1.31h7.38Z"/>
  </g>
  <g>
    <path d="M1103.1,994.98v-.97l1.24-1.21c2.99-2.84,4.34-4.36,4.36-6.12,0-1.19-.58-2.29-2.32-2.29-1.06,0-1.94.54-2.48.99l-.5-1.12c.81-.68,1.96-1.19,3.31-1.19,2.52,0,3.58,1.73,3.58,3.4,0,2.16-1.57,3.91-4.03,6.28l-.94.86v.04h5.26v1.31h-7.47Z"/>
    <path d="M1120.11,989.01c0,3.98-1.48,6.18-4.07,6.18-2.29,0-3.83-2.14-3.87-6.01,0-3.93,1.69-6.09,4.07-6.09s3.87,2.2,3.87,5.92ZM1113.76,989.19c0,3.04.94,4.77,2.38,4.77,1.62,0,2.39-1.89,2.39-4.88s-.74-4.77-2.38-4.77c-1.39,0-2.39,1.69-2.39,4.88Z"/>
    <path d="M1125.01,984.76h-.04l-2.04,1.1-.31-1.21,2.56-1.37h1.35v11.7h-1.53v-10.23Z"/>
    <path d="M1130.66,992.01c0-1.48.88-2.52,2.32-3.13l-.02-.05c-1.3-.61-1.85-1.62-1.85-2.63,0-1.86,1.57-3.12,3.62-3.12,2.27,0,3.4,1.42,3.4,2.88,0,.99-.49,2.05-1.93,2.74v.05c1.46.58,2.36,1.6,2.36,3.02,0,2.04-1.75,3.4-3.98,3.4-2.45,0-3.92-1.46-3.92-3.17ZM1136.96,991.94c0-1.42-.99-2.11-2.57-2.56-1.37.4-2.11,1.3-2.11,2.41-.05,1.19.85,2.23,2.34,2.23s2.34-.88,2.34-2.09ZM1132.6,986.09c0,1.17.88,1.8,2.23,2.16,1.01-.34,1.78-1.06,1.78-2.12,0-.94-.56-1.91-1.98-1.91-1.31,0-2.04.86-2.04,1.87Z"/>
  </g>
  <g>
    <path d="M1182.1,994.98v-.97l1.24-1.21c2.99-2.84,4.34-4.36,4.36-6.12,0-1.19-.58-2.29-2.32-2.29-1.06,0-1.94.54-2.48.99l-.5-1.12c.81-.68,1.96-1.19,3.31-1.19,2.52,0,3.58,1.73,3.58,3.4,0,2.16-1.57,3.91-4.03,6.28l-.94.86v.04h5.26v1.31h-7.47Z"/>
    <path d="M1199.11,989.01c0,3.98-1.48,6.18-4.07,6.18-2.29,0-3.83-2.14-3.87-6.01,0-3.93,1.69-6.09,4.07-6.09s3.87,2.2,3.87,5.92ZM1192.76,989.19c0,3.04.94,4.77,2.38,4.77,1.62,0,2.39-1.89,2.39-4.88s-.74-4.77-2.38-4.77c-1.39,0-2.39,1.69-2.39,4.88Z"/>
    <path d="M1204.01,984.76h-.04l-2.04,1.1-.31-1.21,2.56-1.37h1.35v11.7h-1.53v-10.23Z"/>
    <path d="M1210.72,993.87c.34.04.74,0,1.28-.05.92-.13,1.78-.5,2.45-1.13.77-.7,1.33-1.73,1.55-3.12h-.05c-.65.79-1.58,1.26-2.75,1.26-2.11,0-3.46-1.58-3.46-3.58,0-2.21,1.6-4.16,4-4.16s3.87,1.94,3.87,4.93c0,2.57-.86,4.38-2.02,5.49-.9.88-2.14,1.42-3.4,1.57-.58.09-1.08.11-1.46.09v-1.3ZM1211.3,987.13c0,1.46.88,2.49,2.25,2.49,1.06,0,1.89-.52,2.3-1.22.09-.14.14-.32.14-.58,0-2-.74-3.53-2.39-3.53-1.35,0-2.3,1.19-2.3,2.84Z"/>
  </g>
  <g>
    <path d="M1262.1,994.98v-.97l1.24-1.21c2.99-2.84,4.34-4.36,4.36-6.12,0-1.19-.58-2.29-2.32-2.29-1.06,0-1.94.54-2.48.99l-.5-1.12c.81-.68,1.96-1.19,3.31-1.19,2.52,0,3.58,1.73,3.58,3.4,0,2.16-1.57,3.91-4.03,6.28l-.94.86v.04h5.26v1.31h-7.47Z"/>
    <path d="M1279.11,989.01c0,3.98-1.48,6.18-4.07,6.18-2.29,0-3.83-2.14-3.87-6.01,0-3.93,1.69-6.09,4.07-6.09s3.87,2.2,3.87,5.92ZM1272.76,989.19c0,3.04.94,4.77,2.38,4.77,1.62,0,2.39-1.89,2.39-4.88s-.74-4.77-2.38-4.77c-1.39,0-2.39,1.69-2.39,4.88Z"/>
    <path d="M1280.57,994.98v-.97l1.24-1.21c2.99-2.84,4.34-4.36,4.36-6.12,0-1.19-.58-2.29-2.32-2.29-1.06,0-1.95.54-2.49.99l-.5-1.12c.81-.68,1.96-1.19,3.31-1.19,2.52,0,3.58,1.73,3.58,3.4,0,2.16-1.57,3.91-4.03,6.28l-.94.86v.04h5.26v1.31h-7.47Z"/>
    <path d="M1297.58,989.01c0,3.98-1.48,6.18-4.07,6.18-2.29,0-3.84-2.14-3.87-6.01,0-3.93,1.69-6.09,4.07-6.09s3.87,2.2,3.87,5.92ZM1291.22,989.19c0,3.04.94,4.77,2.38,4.77,1.62,0,2.39-1.89,2.39-4.88s-.74-4.77-2.38-4.77c-1.39,0-2.39,1.69-2.39,4.88Z"/>
  </g>
  <g>
    <path d="M1341.1,994.98v-.97l1.24-1.21c2.99-2.84,4.34-4.36,4.36-6.12,0-1.19-.58-2.29-2.32-2.29-1.06,0-1.94.54-2.48.99l-.5-1.12c.81-.68,1.96-1.19,3.31-1.19,2.52,0,3.58,1.73,3.58,3.4,0,2.16-1.57,3.91-4.03,6.28l-.94.86v.04h5.26v1.31h-7.47Z"/>
    <path d="M1358.11,989.01c0,3.98-1.48,6.18-4.07,6.18-2.29,0-3.83-2.14-3.87-6.01,0-3.93,1.69-6.09,4.07-6.09s3.87,2.2,3.87,5.92ZM1351.76,989.19c0,3.04.94,4.77,2.38,4.77,1.62,0,2.39-1.89,2.39-4.88s-.74-4.77-2.38-4.77c-1.39,0-2.39,1.69-2.39,4.88Z"/>
    <path d="M1359.57,994.98v-.97l1.24-1.21c2.99-2.84,4.34-4.36,4.36-6.12,0-1.19-.58-2.29-2.32-2.29-1.06,0-1.95.54-2.49.99l-.5-1.12c.81-.68,1.96-1.19,3.31-1.19,2.52,0,3.58,1.73,3.58,3.4,0,2.16-1.57,3.91-4.03,6.28l-.94.86v.04h5.26v1.31h-7.47Z"/>
    <path d="M1372.24,984.76h-.04l-2.03,1.1-.31-1.21,2.56-1.37h1.35v11.7h-1.53v-10.23Z"/>
  </g>
  <g>
    <path d="M1420.1,994.98v-.97l1.24-1.21c2.99-2.84,4.34-4.36,4.36-6.12,0-1.19-.58-2.29-2.32-2.29-1.06,0-1.94.54-2.48.99l-.5-1.12c.81-.68,1.96-1.19,3.31-1.19,2.52,0,3.58,1.73,3.58,3.4,0,2.16-1.57,3.91-4.03,6.28l-.94.86v.04h5.26v1.31h-7.47Z"/>
    <path d="M1437.11,989.01c0,3.98-1.48,6.18-4.07,6.18-2.29,0-3.83-2.14-3.87-6.01,0-3.93,1.69-6.09,4.07-6.09s3.87,2.2,3.87,5.92ZM1430.76,989.19c0,3.04.94,4.77,2.38,4.77,1.62,0,2.39-1.89,2.39-4.88s-.74-4.77-2.38-4.77c-1.39,0-2.39,1.69-2.39,4.88Z"/>
    <path d="M1438.57,994.98v-.97l1.24-1.21c2.99-2.84,4.34-4.36,4.36-6.12,0-1.19-.58-2.29-2.32-2.29-1.06,0-1.95.54-2.49.99l-.5-1.12c.81-.68,1.96-1.19,3.31-1.19,2.52,0,3.58,1.73,3.58,3.4,0,2.16-1.57,3.91-4.03,6.28l-.94.86v.04h5.26v1.31h-7.47Z"/>
    <path d="M1447.8,994.98v-.97l1.24-1.21c2.99-2.84,4.34-4.36,4.36-6.12,0-1.19-.58-2.29-2.32-2.29-1.06,0-1.94.54-2.48.99l-.5-1.12c.81-.68,1.96-1.19,3.31-1.19,2.52,0,3.58,1.73,3.58,3.4,0,2.16-1.57,3.91-4.03,6.28l-.94.86v.04h5.26v1.31h-7.47Z"/>
  </g>
  <g>
    <path d="M546.1,994.98v-.97l1.24-1.21c2.99-2.84,4.34-4.36,4.36-6.12,0-1.19-.58-2.29-2.32-2.29-1.06,0-1.94.54-2.48.99l-.5-1.12c.81-.68,1.96-1.19,3.31-1.19,2.52,0,3.58,1.73,3.58,3.4,0,2.16-1.57,3.91-4.03,6.28l-.94.86v.04h5.26v1.31h-7.47Z"/>
    <path d="M563.11,989.01c0,3.98-1.48,6.18-4.07,6.18-2.29,0-3.84-2.14-3.87-6.01,0-3.93,1.69-6.09,4.07-6.09s3.87,2.2,3.87,5.92ZM556.76,989.19c0,3.04.94,4.77,2.38,4.77,1.62,0,2.39-1.89,2.39-4.88s-.74-4.77-2.38-4.77c-1.39,0-2.39,1.69-2.39,4.88Z"/>
    <path d="M568.01,984.76h-.04l-2.03,1.1-.31-1.21,2.56-1.37h1.35v11.7h-1.53v-10.23Z"/>
    <path d="M577.24,984.76h-.04l-2.03,1.1-.31-1.21,2.56-1.37h1.35v11.7h-1.53v-10.23Z"/>
  </g>
</svg>